<?xml version="1.0" encoding="utf-8"?>
<!-- Generator: Adobe Illustrator 18.0.0, SVG Export Plug-In . SVG Version: 6.00 Build 0)  -->
<!DOCTYPE svg PUBLIC "-//W3C//DTD SVG 1.1//EN" "http://www.w3.org/Graphics/SVG/1.1/DTD/svg11.dtd">
<svg version="1.1" id="Layer_1" xmlns="http://www.w3.org/2000/svg" xmlns:xlink="http://www.w3.org/1999/xlink" x="0px" y="0px"
	 viewBox="0 0 350 45" enable-background="new 0 0 350 45" xml:space="preserve">
<path fill="#FFFFFF" d="M19,9.8v24h4.7v-14l2.7,5.4l2.3-4.8L23.6,9.8H19z M36.1,9.8l-8.6,17.7l0.7,1.4h3.2l4.6-9.1v14h4.7v-24H36.1z
	"/>
<path fill="#FFFFFF" d="M79.2,9.8l5.7,9.6l2.5-4.2l-2.9-5.4H79.2z M92.9,9.8l-14.2,24h5.4l4.6-8.4l4.7,8.4h5.4l-7.5-12.3l7-11.7
	H92.9z"/>
<rect x="108.4" y="9.8" fill="#FFFFFF" width="4.7" height="24"/>
<path fill="#FFFFFF" d="M130,33.8h4.7V16H130V33.8z M123.7,14h17.2V9.8h-17.2V14z"/>
<rect x="58.1" y="25.6" fill="#FFFFFF" width="6" height="0"/>
<polygon fill="#FFFFFF" points="64.1,25.6 64.1,25.6 58.1,25.6 58.1,25.6 53.5,25.6 50.5,33.8 55.4,33.8 56.8,29.5 65.3,29.5 
	66.8,33.8 71.6,33.8 68.7,25.6 "/>
<polygon fill="#FFFFFF" points="59.2,9.8 54.2,23.5 58.8,23.5 61.2,16.9 63.4,23.5 67.9,23.5 62.9,9.8 "/>
<polygon fill="#FFFFFF" points="216.4,9.7 216.4,33.8 221.1,33.8 221.1,24.7 221.1,20.5 221.1,13.9 221.1,9.7 "/>
<g>
	<defs>
		<rect id="SVGID_1_" x="19" y="9.6" width="310.3" height="24.4"/>
	</defs>
	<clipPath id="SVGID_2_">
		<use xlink:href="#SVGID_1_"  overflow="visible"/>
	</clipPath>
	<path clip-path="url(#SVGID_2_)" fill="#FFFFFF" d="M225.7,9.7h-2.5v4.2h2.3c2.1,0,3.5,1.3,3.5,3.3c0,2-1.3,3.3-3.5,3.3h-2.3v4.2
		h2.5c5,0,7.9-3.4,7.9-7.5C233.6,13.1,230.7,9.7,225.7,9.7"/>
	<path clip-path="url(#SVGID_2_)" fill="#FFFFFF" d="M168.9,34c-2.6,0-4.7-0.9-6.5-2.6c-1-1-1.7-2.3-2-3.6c-0.3-1.4-0.4-3.3-0.4-6
		c0-2.6,0.1-4.6,0.4-6c0.3-1.4,0.9-2.6,2-3.6c1.8-1.8,3.9-2.6,6.5-2.6c4.6,0,8,2.7,8.8,7.6H173c-0.5-2.1-1.8-3.4-4.1-3.4
		c-1.3,0-2.3,0.4-3,1.2c-1,1-1.2,2.1-1.2,6.8c0,4.7,0.2,5.7,1.2,6.8c0.7,0.8,1.7,1.2,3,1.2c2.3,0,3.5-1.4,4.1-3.4h4.8
		C177,31.3,173.5,34,168.9,34"/>
</g>
<rect x="244.4" y="9.8" fill="#FFFFFF" width="4.7" height="24"/>
<path fill="#FFFFFF" d="M313.7,33.8h15.6v-4.2h-15.6V33.8z M313.7,29.6L313.7,29.6L313.7,29.6z M313.7,27.5h4.7V9.8h-4.7V27.5z"/>
<path fill="#FFFFFF" d="M265.9,33.8h4.7V16h-4.7V33.8z M259.6,14h17.2V9.8h-17.2V14z"/>
<rect x="196.2" y="22.6" fill="#FFFFFF" width="0" height="6"/>
<polygon fill="#FFFFFF" points="199.2,25.6 199.2,25.6 193.2,25.6 193.2,25.6 188.6,25.6 185.6,33.8 190.5,33.8 191.9,29.5 
	200.5,29.5 201.9,33.8 206.8,33.8 203.8,25.6 "/>
<polygon fill="#FFFFFF" points="194.3,9.8 189.3,23.5 194,23.5 196.3,16.9 198.5,23.5 203,23.5 198,9.8 "/>
<rect x="293.4" y="22.6" fill="#FFFFFF" width="0" height="6"/>
<polygon fill="#FFFFFF" points="296.4,25.6 296.4,25.6 290.4,25.6 290.4,25.6 285.8,25.6 282.8,33.8 287.7,33.8 289.1,29.5 
	297.7,29.5 299.1,33.8 304,33.8 301,25.6 "/>
<polygon fill="#FFFFFF" points="291.5,9.8 286.5,23.5 291.2,23.5 293.5,16.9 295.7,23.5 300.2,23.5 295.2,9.8 "/>
</svg>
